<?xml version="1.0" encoding="utf-8"?>
<!-- Generator: Adobe Illustrator 21.1.0, SVG Export Plug-In . SVG Version: 6.00 Build 0)  -->
<svg version="1.1" id="Capa_1" xmlns="http://www.w3.org/2000/svg" xmlns:xlink="http://www.w3.org/1999/xlink" x="0px" y="0px"
	 viewBox="0 0 512 512" style="enable-background:new 0 0 512 512;" xml:space="preserve">
<g>
	<g>
		<path d="M477.9,25.6H85.3c-18.9,0-34.1,15.3-34.1,34.1v273.1H8.5c-4.7,0-8.5,3.8-8.5,8.5c0,18.9,15.3,34.1,34.1,34.1h247.5v102.4
			c0,4.7,3.8,8.5,8.5,8.5c2.3,0,4.4-0.9,6-2.5l45.2-45.2l45.2,45.2c1.6,1.6,3.8,2.5,6,2.5c1.1,0,2.2-0.2,3.3-0.6
			c3.2-1.3,5.3-4.4,5.3-7.9V375.5h25.6c18.9,0,34.1-15.3,34.1-34.1V68.3h42.7c4.7,0,8.5-3.8,8.5-8.5C512,40.9,496.7,25.6,477.9,25.6
			z M443.7,59.7v273.1h-34.1v17.1h31.8c-3,5.3-8.7,8.5-14.8,8.5h-25.6v-8.5H384v107.4l-36.6-36.6c-3.3-3.3-8.7-3.3-12.1,0
			l-36.6,36.6V349.9h-17.1v8.5H34.1c-6.1,0-11.7-3.3-14.8-8.5h40.4h213.3v-17.1H68.3V59.7c0-9.4,7.6-17.1,17.1-17.1h363.1
			C445.4,47.8,443.8,53.7,443.7,59.7z M463.1,51.2c4.7-8.2,15.2-10.9,23.3-6.2c2.6,1.5,4.7,3.6,6.2,6.2H463.1z"/>
	</g>
</g>
<g>
	<g>
		<path d="M421.8,292.7l-10.9-19.6l11-19.6c2.3-4.1,0.9-9.3-3.2-11.6c-0.2-0.1-0.4-0.2-0.6-0.3l-20.4-9.3l-2.6-22.3
			c-0.6-4.7-4.8-8-9.5-7.5c-0.2,0-0.4,0.1-0.6,0.1l-22,4.4l-15.2-16.5c-3.4-3.5-9-3.5-12.4-0.1c0,0-0.1,0.1-0.1,0.1L319.9,207
			l-22-4.4c-4.6-0.9-9.1,2.1-10,6.7c0,0.2-0.1,0.4-0.1,0.6l-2.6,22.3l-20.4,9.3c-4.3,2-6.2,7-4.2,11.3c0.1,0.2,0.2,0.4,0.3,0.6
			l11,19.5l-11,19.6c-2.3,4.1-0.9,9.3,3.2,11.6c0.2,0.1,0.4,0.2,0.6,0.3l20.4,9.3l2.6,22.3c0.6,4.7,4.8,8,9.5,7.5
			c0.2,0,0.4-0.1,0.6-0.1l22-4.4l15.2,16.5c3.2,3.5,8.6,3.7,12.1,0.5c0.2-0.2,0.3-0.3,0.5-0.5l15.2-16.5l22,4.4
			c2.3,0.5,4.8-0.1,6.7-1.5c1.9-1.4,3.1-3.5,3.4-5.9l2.6-22.3l20.4-9.3c4.3-2,6.2-7,4.2-11.3C422,293.1,421.9,292.9,421.8,292.7z
			 M393.6,277.2l8.8,15.7l-16.3,7.5c-2.7,1.2-4.6,3.8-4.9,6.8l-2.1,17.9l-17.6-3.5c-2.9-0.6-5.9,0.4-7.9,2.6l-12.2,13.2l-12.2-13.2
			c-1.6-1.7-3.9-2.7-6.3-2.7c-0.6,0-1.1,0.1-1.7,0.2l-17.6,3.5l-2.1-17.9c-0.3-3-2.2-5.5-4.9-6.8l-16.3-7.5l8.8-15.7
			c1.5-2.6,1.5-5.8,0-8.3v0l-8.8-15.7l16.3-7.5c2.7-1.2,4.6-3.8,4.9-6.8l2.1-17.9l17.6,3.5c2.9,0.6,5.9-0.4,7.9-2.6l12.2-13.2
			l12.2,13.2c2,2.2,5,3.2,7.9,2.6l17.6-3.5l2.1,17.9c0.3,3,2.2,5.5,4.9,6.8l16.3,7.5l-8.8,15.7C392.2,271.5,392.2,274.6,393.6,277.2
			z"/>
	</g>
</g>
<g>
	<g>
		<path d="M341.3,230.4c-23.6,0-42.7,19.1-42.7,42.7c0,23.6,19.1,42.6,42.7,42.7c23.6,0,42.7-19.1,42.7-42.7
			S364.9,230.4,341.3,230.4z M341.3,298.7c-14.1,0-25.6-11.5-25.6-25.6s11.5-25.6,25.6-25.6s25.6,11.5,25.6,25.6
			S355.5,298.7,341.3,298.7z"/>
	</g>
</g>
<g>
	<g>
		<rect x="187.7" y="76.8" width="136.5" height="17.1"/>
	</g>
</g>
<g>
	<g>
		<rect x="102.4" y="128" width="307.2" height="17.1"/>
	</g>
</g>
<g>
	<g>
		<rect x="102.4" y="162.1" width="307.2" height="17.1"/>
	</g>
</g>
<g>
	<g>
		<rect x="110.9" y="273.1" width="110.9" height="17.1"/>
	</g>
</g>
</svg>
