<?xml version="1.0" encoding="utf-8"?>
<!-- Generator: Adobe Illustrator 21.1.0, SVG Export Plug-In . SVG Version: 6.00 Build 0)  -->
<svg version="1.1" id="Capa_1" xmlns="http://www.w3.org/2000/svg" xmlns:xlink="http://www.w3.org/1999/xlink" x="0px" y="0px"
	 viewBox="0 0 512 512" style="enable-background:new 0 0 512 512;" xml:space="preserve">
<g>
	<g>
		<path d="M511.9,226.5c-0.4-4.1-2.6-7.9-5.9-10.4l-40.6-30.7l14.8-48.7c1.2-4,0.7-8.3-1.4-11.9c-2.1-3.6-5.6-6.2-9.6-7.1L419.7,106
			l-6.3-50.5c-0.5-4.1-2.7-7.9-6.1-10.3c-3.4-2.5-7.6-3.4-11.7-2.6l-50,9.6L319.3,8.6c-2.2-3.6-5.7-6.1-9.8-6.9
			c-4.1-0.9-8.3,0-11.8,2.4L256,33.1L214.3,4c-3.4-2.4-7.7-3.2-11.8-2.4s-7.6,3.4-9.8,7l-26.3,43.5l-50-9.6
			c-4.1-0.8-8.3,0.2-11.7,2.6c-3.4,2.5-5.6,6.2-6.1,10.3L92.3,106l-49.5,11.6c-4.1,0.9-7.5,3.5-9.6,7.1c-2.1,3.6-2.6,7.9-1.4,11.9
			l14.8,48.7L6,216c-3.3,2.5-5.5,6.3-5.9,10.4c-0.4,4.1,0.9,8.3,3.6,11.4L37,276.4l-24.6,44.6c-2,3.7-2.4,8-1.1,11.9
			c1.3,4,4.2,7.2,7.9,9l46.1,21.6l-4.3,50.7c-0.4,4.2,1,8.3,3.8,11.4c2.8,3.1,6.7,4.9,10.9,5l50.9,1l16.7,48.1
			c1.4,3.9,4.3,7.1,8.1,8.8c3.8,1.7,8.1,1.7,12,0.1l46.9-19.8l34.8,37.1c2.9,3,6.8,4.8,11,4.8s8.2-1.7,11-4.8l34.8-37.1l46.9,19.8
			c3.8,1.6,8.2,1.6,12-0.1c3.8-1.7,6.7-4.9,8.1-8.8l16.7-48.1l50.9-1c4.2-0.1,8.1-1.9,10.9-5s4.2-7.2,3.8-11.4l-4.3-50.7l46.1-21.6
			c3.8-1.8,6.6-5,7.9-9c1.3-4,0.9-8.3-1.1-11.9L475,276.4l33.3-38.5C511.1,234.7,512.4,230.6,511.9,226.5z M443.6,281.7l21.9,39.7
			l-41,19.2c-5.7,2.7-9.2,8.6-8.6,14.9l3.8,45.1l-45.3,0.9c-6.3,0.1-11.9,4.2-13.9,10.1l-14.9,42.8l-41.7-17.6
			c-5.8-2.5-12.5-1-16.9,3.6l-31,33l-31-33c-2.9-3.1-6.9-4.8-11-4.8c-2,0-4,0.4-5.9,1.2l-41.7,17.6l-14.9-42.8
			c-2.1-6-7.6-10-13.9-10.1l-45.3-0.9l3.8-45.1c0.5-6.3-2.9-12.2-8.6-14.9l-41-19.2l21.9-39.7c3-5.5,2.3-12.4-1.8-17.1L37,230.3
			L73.1,203c5-3.8,7.2-10.4,5.3-16.4l-13.1-43.3l44.1-10.3c6.1-1.4,10.7-6.5,11.5-12.8l5.6-44.9l44.5,8.5c6.2,1.2,12.5-1.6,15.7-7
			L210.2,38l37.2,25.9c5.2,3.6,12.1,3.6,17.2,0L301.8,38l23.4,38.8c3.3,5.4,9.5,8.2,15.7,7l44.5-8.5l5.6,44.9
			c0.8,6.3,5.4,11.4,11.5,12.8l44.1,10.3l-13.1,43.3c-1.8,6,0.3,12.6,5.3,16.4l36.1,27.3l-29.6,34.3
			C441.2,269.4,440.5,276.2,443.6,281.7z"/>
	</g>
</g>
<g>
	<g>
		<path d="M256,111.7c-79.6,0-144.3,64.7-144.3,144.3S176.4,400.3,256,400.3S400.3,335.6,400.3,256S335.6,111.7,256,111.7z
			 M256,370.1c-62.9,0-114.1-51.2-114.1-114.1S193.1,141.9,256,141.9S370.1,193.1,370.1,256S318.9,370.1,256,370.1z"/>
	</g>
</g>
<g>
	<g>
		<path d="M315.1,213c-5.9-5.9-15.4-5.9-21.3,0L239.9,267l-21.6-21.6c-5.9-5.9-15.4-5.9-21.3,0c-5.9,5.9-5.9,15.4,0,21.3l32.3,32.3
			c2.9,2.9,6.8,4.4,10.7,4.4c3.9,0,7.7-1.5,10.7-4.4l64.6-64.6C321,228.5,321,218.9,315.1,213z"/>
	</g>
</g>
</svg>
