<svg height="512pt" viewBox="-66 0 512 512" width="512pt" xmlns="http://www.w3.org/2000/svg"><path d="m191.011719.00390625-.648438-.00390625c-104.964843 0-190.363281 85.40625-190.363281 190.386719 0 57.558593 29.417969 102.445312 62.195312 147.148437l127.917969 174.464844 128.46875-174.464844c32.777344-44.699218 62.195313-89.589844 62.195313-147.144531 0-104.773437-85.066406-190.054687-189.765625-190.38671875zm103.378906 319.79296875s-99.363281 135.886719-103.871094 142.019531l-104.132812-142.019531c-30.851563-42.078125-56.386719-80.855469-56.386719-129.410156 0-88.238281 71.613281-160.0625 159.765625-160.386719h.621094c88.441406.003906 160.390625 71.953125 160.390625 160.390625 0 48.550781-25.535156 87.332031-56.386719 129.40625zm0 0"/><path d="m81.402344 166 17.085937 24.65625 18.746094-12.988281v77.324219h146.308594v-77.285157l18.761719 12.960938 17.050781-24.679688-109.128907-75.394531zm152.140625-9.019531v68.015625h-28.152344v-37.332032h-30v37.332032h-28.15625v-68.113282l43.019531-29.808593zm0 0"/></svg>