<?xml version="1.0" encoding="utf-8"?>
<!-- Generator: Adobe Illustrator 21.1.0, SVG Export Plug-In . SVG Version: 6.00 Build 0)  -->
<svg version="1.1" id="Layer_1" xmlns="http://www.w3.org/2000/svg" xmlns:xlink="http://www.w3.org/1999/xlink" x="0px" y="0px"
	 viewBox="0 0 512 512" style="enable-background:new 0 0 512 512;" xml:space="preserve">
<path d="M19.1,20.3c-2.9-2.9-7.2-3.7-10.9-2.2C4.4,19.6,2,23.3,2,27.4V502c0,5.5,4.5,10,10,10h473.8c4.1,0,7.7-2.4,9.3-6.2
	s0.7-8.1-2.2-10.9L19.1,20.3z M22.1,491.9v-34.1h21.4c5.5,0,10-4.5,10-10c0-5.5-4.5-10-10-10H22.1v-20.1h22.1c5.5,0,10-4.5,10-10
	c0-5.5-4.5-10-10-10H22.1v-20.1h22.1c5.5,0,10-4.5,10-10c0-5.5-4.5-10-10-10H22.1v-20.1h42.1c5.5,0,10-4.5,10-10c0-5.5-4.5-10-10-10
	H22.1v-20.1h22.1c5.5,0,10-4.5,10-10c0-5.5-4.5-10-10-10H22.1v-20.1h22.1c5.5,0,10-4.5,10-10s-4.5-10-10-10H22.1v-22.1h22.1
	c5.5,0,10-4.5,10-10s-4.5-10-10-10H22.1v-18h42.1c5.5,0,10-4.5,10-10c0-5.5-4.5-10-10-10H22.1V137h22.1c5.5,0,10-4.5,10-10
	c0-5.5-4.5-10-10-10H22.1V51.6l439.6,440.3H22.1z"/>
<path d="M105.4,425.7h168.1c4.1,0,7.7-2.4,9.3-6.2c1.6-3.7,0.7-8.1-2.2-10.9L112.5,240.2c-2.9-2.9-7.2-3.7-10.9-2.2
	c-3.7,1.6-6.2,5.2-6.2,9.3v168.4C95.4,421.2,99.9,425.7,105.4,425.7z M115.4,271.5l133.9,134.1H115.4V271.5z"/>
<path d="M243.2,105.8c0,0.1,0,0.1,0.1,0.2c0.1,0.2,0.2,0.5,0.3,0.7c0,0.1,0.1,0.2,0.1,0.3c0.1,0.2,0.3,0.5,0.4,0.7
	c0,0.1,0.1,0.2,0.1,0.2c0.2,0.2,0.3,0.5,0.5,0.7c0,0.1,0.1,0.1,0.1,0.2c0.2,0.3,0.5,0.6,0.7,0.8L417,281c0,0,0,0,0,0
	c10.4,10.4,24.2,16.1,38.9,16.1c14.7,0,28.6-5.7,39-16.1l0.8-0.8c10.4-10.4,16.1-24.3,16.1-39s-5.7-28.6-16.1-39c0,0,0,0-0.1-0.1
	L324.3,30.8c0,0,0,0,0,0c-0.2-0.2-0.5-0.5-0.8-0.7c-0.1-0.1-0.1-0.1-0.2-0.2c-0.2-0.2-0.4-0.3-0.7-0.5c-0.1-0.1-0.2-0.1-0.2-0.1
	c-0.2-0.1-0.5-0.3-0.7-0.4c-0.1,0-0.2-0.1-0.3-0.1c-0.2-0.1-0.5-0.2-0.7-0.3c-0.1,0-0.1,0-0.1-0.1L243.8,1.2
	c-7.8-2.8-16.7-0.8-22.6,5.1c-5.9,5.9-7.9,14.7-5.1,22.6L243.2,105.8z M481.6,266l-0.8,0.8c-6.6,6.6-15.4,10.3-24.8,10.3
	c-5.9,0-11.6-1.5-16.7-4.2l24.1-24.1c0,0,0,0,0.1-0.1c0,0,0,0,0.1-0.1l24.2-24.2c2.7,5.1,4.2,10.8,4.2,16.7
	C491.9,250.6,488.2,259.4,481.6,266z M456.3,227.5L427,198.2c-3.9-3.9-10.3-3.9-14.2,0c-3.9,3.9-3.9,10.3,0,14.2l29.3,29.3
	L424,259.8L266.8,102.5l18.1-18.1l71.2,71.2c2,2,4.5,2.9,7.1,2.9s5.1-1,7.1-2.9c3.9-3.9,3.9-10.3,0-14.2L299,70.3l18.2-18.2
	l157.2,157.2L456.3,227.5z M235.4,20.5c0.4-0.4,1.1-0.6,1.7-0.4L298.9,42l-42.1,42.1L235,22.2C234.8,21.6,234.9,21,235.4,20.5z"/>
<path d="M382.4,180.6c0.3,0.6,0.6,1.2,0.9,1.7c0.4,0.6,0.8,1.1,1.3,1.5s1,0.9,1.5,1.2c0.5,0.4,1.1,0.7,1.7,0.9
	c0.6,0.3,1.2,0.4,1.9,0.6c0.6,0.1,1.3,0.2,2,0.2s1.3-0.1,2-0.2c0.6-0.1,1.3-0.3,1.9-0.6c0.6-0.3,1.2-0.6,1.7-0.9
	c0.6-0.4,1.1-0.8,1.5-1.2s0.9-1,1.2-1.5c0.4-0.5,0.7-1.1,0.9-1.7c0.3-0.6,0.4-1.2,0.6-1.9c0.1-0.6,0.2-1.3,0.2-2
	c0-0.7-0.1-1.3-0.2-2c-0.1-0.6-0.3-1.3-0.6-1.9c-0.3-0.6-0.6-1.2-0.9-1.7c-0.4-0.6-0.8-1.1-1.2-1.5c-0.5-0.5-1-0.9-1.5-1.2
	c-0.5-0.4-1.1-0.7-1.7-0.9c-0.6-0.3-1.2-0.4-1.9-0.6c-1.3-0.3-2.6-0.3-3.9,0c-0.6,0.1-1.3,0.3-1.9,0.6c-0.6,0.3-1.2,0.6-1.7,0.9
	c-0.6,0.4-1.1,0.8-1.5,1.2c-0.5,0.5-0.9,1-1.3,1.5c-0.4,0.5-0.7,1.1-0.9,1.7c-0.3,0.6-0.5,1.2-0.6,1.9c-0.1,0.7-0.2,1.3-0.2,2
	c0,0.6,0.1,1.3,0.2,2C381.9,179.4,382.1,180,382.4,180.6z"/>
</svg>
