<?xml version="1.0" encoding="utf-8"?>
<!-- Generator: Adobe Illustrator 21.1.0, SVG Export Plug-In . SVG Version: 6.00 Build 0)  -->
<svg version="1.1" id="Capa_1" xmlns="http://www.w3.org/2000/svg" xmlns:xlink="http://www.w3.org/1999/xlink" x="0px" y="0px"
	 viewBox="0 0 512 512" style="enable-background:new 0 0 512 512;" xml:space="preserve">
<g>
	<path d="M269.1,159.9c-4.5,4.5-4.5,11.9,0,16.4c4.5,4.5,11.9,4.5,16.4,0l9.6-9.6c3.4-3.4,4.4-8.7,2.3-13.1
		c-6.4-13.7-9.6-27.9-9.6-42.2c0-29.1,12.6-56.4,34-75.3l0,75.8c0,3.8,1.9,7.4,5,9.5l55,38.1c4,2.7,9.2,2.7,13.2,0l55-38
		c3.1-2.2,5-5.7,5-9.5l0-75.8c21.3,18.9,34,46.2,34,75.3c0,26.9-10.5,52.1-29.5,71.1c-19,19-44.2,29.4-71,29.4c0,0-0.1,0-0.1,0
		c-9.2,0-27.4-4.5-33.6-6.2c-4-1.1-8.3,0-11.3,3l-35.2,35.2c-4.5,4.5-4.5,11.9,0,16.4c2.3,2.3,5.2,3.4,8.2,3.4s5.9-1.1,8.2-3.4
		l30.5-30.5c8.5,2.1,23.1,5.3,33.1,5.3c0,0,0.1,0,0.1,0c33,0,64.1-12.9,87.4-36.2c23.4-23.4,36.2-54.4,36.2-87.5
		c0-44.5-24.2-85.8-63-107.7c-3.6-2-8-2-11.5,0.1c-3.6,2.1-5.7,5.9-5.7,10l0,92.2l-43.4,30l-43.4-30l0-92.2c0-4.1-2.2-7.9-5.7-10
		c-3.6-2.1-7.9-2.1-11.5-0.1c-38.9,22-63,63.3-63,107.8c0,15,2.9,29.9,8.6,44.4L269.1,159.9z"/>
	<path d="M238.4,313.7L77.7,474.4c-6,6-14.1,9.4-22.6,9.4c0,0,0,0,0,0c-8.5,0-16.6-3.3-22.6-9.4c-6-6-9.4-14.1-9.3-22.6
		c0-8.5,3.3-16.5,9.4-22.6L170.8,291c4.5-4.5,4.5-11.9,0-16.4c-4.5-4.5-11.9-4.5-16.4,0L16.2,412.8C5.8,423.2,0,437,0,451.7
		c0,14.7,5.7,28.6,16.1,39c10.4,10.4,24.3,16.2,39,16.2c0,0,0,0,0,0c14.7,0,28.6-5.8,39-16.2l160.7-160.7c4.5-4.5,4.5-11.9,0-16.4
		C250.3,309.2,242.9,309.2,238.4,313.7z"/>
	<path d="M54.9,437.7c-3.8,0-7.4,1.5-10,4.2c-5.6,5.5-5.6,14.6-0.1,20.2c0,0,0,0,0,0c2.8,2.8,6.4,4.2,10.1,4.2
		c3.7,0,7.3-1.4,10.1-4.2c5.5-5.6,5.5-14.6,0-20.1C62.4,439.2,58.8,437.7,54.9,437.7C55,437.7,55,437.7,54.9,437.7z"/>
	<path d="M433.7,379c-1.2-1.2-2.6-2.1-4.2-2.7l-33.2-12l-120-120l19.4-19.4c4.5-4.5,4.5-11.9,0-16.4c-3.4-3.4-8.5-4.3-12.7-2.5
		L101.4,24.5c-11-11-25.6-17.1-41.2-17.1c0,0,0,0-0.1,0C44.6,7.4,30,13.4,19,24.4C8,35.5,1.9,50.1,1.9,65.7
		C1.9,81.3,8,95.9,19,106.9l181.5,181.5c-1.8,4.2-0.9,9.3,2.5,12.7c4.5,4.5,11.9,4.5,16.4,0l19.4-19.4l120,120l12,33.2
		c0.6,1.6,1.5,3,2.7,4.2l67.3,67.3c2.3,2.3,5.2,3.4,8.2,3.4s5.9-1.1,8.2-3.4l43.8-43.8c2.2-2.2,3.4-5.1,3.4-8.2c0-3.1-1.2-6-3.4-8.2
		L433.7,379z M251.6,236C251.6,236.1,251.6,236.1,251.6,236l-35.4,35.4L35.4,90.5c-6.6-6.6-10.3-15.5-10.3-24.8
		c0-9.4,3.7-18.2,10.3-24.9c6.6-6.6,15.4-10.3,24.8-10.3c0,0,0,0,0,0c9.4,0,18.2,3.7,24.8,10.3l180.9,180.9L251.6,236
		C251.7,236,251.7,236,251.6,236z M449,481.9l-57.3-57.3l-12-33.2c-0.6-1.6-1.5-3-2.7-4.2L255.1,265.3l4.7-4.7l121.8,121.8
		c1.2,1.2,2.6,2.1,4.2,2.7l33.2,12l57.3,57.3L449,481.9z"/>
	<path d="M68.3,57.4c-4.5-4.5-11.9-4.5-16.4,0c-4.5,4.5-4.5,11.9,0,16.4l159.8,159.8c2.3,2.3,5.2,3.4,8.2,3.4s5.9-1.1,8.2-3.4
		c4.5-4.5,4.5-11.9,0-16.4L68.3,57.4z"/>
</g>
</svg>
