<?xml version="1.0" encoding="utf-8"?>
<!-- Generator: Adobe Illustrator 21.1.0, SVG Export Plug-In . SVG Version: 6.00 Build 0)  -->
<svg version="1.1" id="Capa_1" xmlns="http://www.w3.org/2000/svg" xmlns:xlink="http://www.w3.org/1999/xlink" x="0px" y="0px"
	 viewBox="0 0 512 512" style="enable-background:new 0 0 512 512;" xml:space="preserve">
<g>
	<g>
		<path d="M389.3,338.7c-16.7-16.5-37.6-16.5-54.2,0c-12.7,12.6-25.4,25.1-37.8,37.9c-3.4,3.5-6.3,4.3-10.4,1.9
			c-8.2-4.5-16.9-8.1-24.8-13c-36.8-23.1-67.5-52.8-94.8-86.3c-13.5-16.6-25.6-34.4-34-54.4c-1.7-4-1.4-6.7,1.9-10
			c12.7-12.3,25-24.8,37.5-37.4c17.4-17.5,17.4-37.9-0.1-55.5c-9.9-10-19.8-19.8-29.7-29.8c-10.2-10.2-20.3-20.6-30.7-30.7
			c-16.7-16.3-37.6-16.3-54.2,0.1C45,74,32.8,86.9,19.8,99.3C7.7,110.7,1.7,124.7,0.4,141c-2,26.5,4.5,51.6,13.6,76
			c18.8,50.5,47.3,95.4,81.9,136.5C142.7,409,198.5,453,263.9,484.8c29.4,14.3,59.9,25.3,93,27.1c22.8,1.3,42.6-4.5,58.5-22.3
			c10.9-12.1,23.1-23.2,34.6-34.8c17-17.3,17.2-38.1,0.2-55.2C430,379.2,409.6,358.9,389.3,338.7z"/>
		<path d="M368.9,253.8l39.3-6.7c-6.2-36.1-23.2-68.8-49.1-94.8c-27.4-27.4-62-44.6-100.1-50l-5.5,39.5
			c29.5,4.2,56.4,17.5,77.6,38.7C351,200.5,364.1,225.9,368.9,253.8z"/>
		<path d="M430.4,82.9C385,37.5,327.6,8.8,264.2,0l-5.5,39.5C313.4,47.2,363,72,402.3,111.1c37.2,37.2,61.6,84.2,70.4,135.8
			l39.3-6.7C501.7,180.4,473.4,126,430.4,82.9z"/>
	</g>
</g>
</svg>
